<mxfile host="app.diagrams.net" agent="Mozilla/5.0 (Macintosh; Intel Mac OS X 10_15_7) AppleWebKit/537.36 (KHTML, like Gecko) Chrome/126.0.0.0 Safari/537.36" version="25.0.1">
  <diagram name="Page-1" id="gtiK_tnDz15MmgYBI_Ed">
    <mxGraphModel dx="1414" dy="1019" grid="1" gridSize="10" guides="1" tooltips="1" connect="1" arrows="1" fold="1" page="1" pageScale="1" pageWidth="850" pageHeight="1100" math="0" shadow="0">
      <root>
        <mxCell id="0" />
        <mxCell id="1" parent="0" />
        <mxCell id="7BiFJFlhl1OP4Zaxcnc6-1" value="Сопроводительная таблица" style="shape=table;startSize=50;container=1;collapsible=0;childLayout=tableLayout;strokeColor=default;fontSize=16;" vertex="1" parent="1">
          <mxGeometry x="160" y="180" width="480" height="820" as="geometry" />
        </mxCell>
        <mxCell id="7BiFJFlhl1OP4Zaxcnc6-2" value="" style="shape=tableRow;horizontal=0;startSize=0;swimlaneHead=0;swimlaneBody=0;strokeColor=inherit;top=0;left=0;bottom=0;right=0;collapsible=0;dropTarget=0;fillColor=none;points=[[0,0.5],[1,0.5]];portConstraint=eastwest;fontSize=16;" vertex="1" parent="7BiFJFlhl1OP4Zaxcnc6-1">
          <mxGeometry y="50" width="480" height="86" as="geometry" />
        </mxCell>
        <mxCell id="7BiFJFlhl1OP4Zaxcnc6-3" value="1" style="shape=partialRectangle;html=1;whiteSpace=wrap;connectable=0;strokeColor=inherit;overflow=hidden;fillColor=none;top=0;left=0;bottom=0;right=0;pointerEvents=1;fontSize=16;" vertex="1" parent="7BiFJFlhl1OP4Zaxcnc6-2">
          <mxGeometry width="74" height="86" as="geometry">
            <mxRectangle width="74" height="86" as="alternateBounds" />
          </mxGeometry>
        </mxCell>
        <mxCell id="7BiFJFlhl1OP4Zaxcnc6-4" value="Пользователь нажимает кнопку &quot;+&quot; для создания нового списка" style="shape=partialRectangle;html=1;whiteSpace=wrap;connectable=0;strokeColor=inherit;overflow=hidden;fillColor=none;top=0;left=0;bottom=0;right=0;pointerEvents=1;fontSize=16;align=left;spacingLeft=14;spacingRight=6;" vertex="1" parent="7BiFJFlhl1OP4Zaxcnc6-2">
          <mxGeometry x="74" width="406" height="86" as="geometry">
            <mxRectangle width="406" height="86" as="alternateBounds" />
          </mxGeometry>
        </mxCell>
        <mxCell id="7BiFJFlhl1OP4Zaxcnc6-6" value="" style="shape=tableRow;horizontal=0;startSize=0;swimlaneHead=0;swimlaneBody=0;strokeColor=inherit;top=0;left=0;bottom=0;right=0;collapsible=0;dropTarget=0;fillColor=none;points=[[0,0.5],[1,0.5]];portConstraint=eastwest;fontSize=16;" vertex="1" parent="7BiFJFlhl1OP4Zaxcnc6-1">
          <mxGeometry y="136" width="480" height="85" as="geometry" />
        </mxCell>
        <mxCell id="7BiFJFlhl1OP4Zaxcnc6-7" value="2" style="shape=partialRectangle;html=1;whiteSpace=wrap;connectable=0;strokeColor=inherit;overflow=hidden;fillColor=none;top=0;left=0;bottom=0;right=0;pointerEvents=1;fontSize=16;" vertex="1" parent="7BiFJFlhl1OP4Zaxcnc6-6">
          <mxGeometry width="74" height="85" as="geometry">
            <mxRectangle width="74" height="85" as="alternateBounds" />
          </mxGeometry>
        </mxCell>
        <mxCell id="7BiFJFlhl1OP4Zaxcnc6-8" value="Сайт отображает форму с параметрами отбора" style="shape=partialRectangle;html=1;whiteSpace=wrap;connectable=0;strokeColor=inherit;overflow=hidden;fillColor=none;top=0;left=0;bottom=0;right=0;pointerEvents=1;fontSize=16;align=left;spacingLeft=14;spacingRight=6;" vertex="1" parent="7BiFJFlhl1OP4Zaxcnc6-6">
          <mxGeometry x="74" width="406" height="85" as="geometry">
            <mxRectangle width="406" height="85" as="alternateBounds" />
          </mxGeometry>
        </mxCell>
        <mxCell id="7BiFJFlhl1OP4Zaxcnc6-10" value="" style="shape=tableRow;horizontal=0;startSize=0;swimlaneHead=0;swimlaneBody=0;strokeColor=inherit;top=0;left=0;bottom=0;right=0;collapsible=0;dropTarget=0;fillColor=none;points=[[0,0.5],[1,0.5]];portConstraint=eastwest;fontSize=16;" vertex="1" parent="7BiFJFlhl1OP4Zaxcnc6-1">
          <mxGeometry y="221" width="480" height="84" as="geometry" />
        </mxCell>
        <mxCell id="7BiFJFlhl1OP4Zaxcnc6-11" value="3" style="shape=partialRectangle;html=1;whiteSpace=wrap;connectable=0;strokeColor=inherit;overflow=hidden;fillColor=none;top=0;left=0;bottom=0;right=0;pointerEvents=1;fontSize=16;" vertex="1" parent="7BiFJFlhl1OP4Zaxcnc6-10">
          <mxGeometry width="74" height="84" as="geometry">
            <mxRectangle width="74" height="84" as="alternateBounds" />
          </mxGeometry>
        </mxCell>
        <mxCell id="7BiFJFlhl1OP4Zaxcnc6-12" value="&lt;span style=&quot;color: rgb(0, 0, 0); font-family: Helvetica; font-size: 16px; font-style: normal; font-variant-ligatures: normal; font-variant-caps: normal; font-weight: 400; letter-spacing: normal; orphans: 2; text-indent: 0px; text-transform: none; widows: 2; word-spacing: 0px; -webkit-text-stroke-width: 0px; white-space: normal; background-color: rgb(251, 251, 251); text-decoration-thickness: initial; text-decoration-style: initial; text-decoration-color: initial; float: none; display: inline !important;&quot;&gt;Пользователь з&lt;/span&gt;аполняет параметры" style="shape=partialRectangle;html=1;whiteSpace=wrap;connectable=0;strokeColor=inherit;overflow=hidden;fillColor=none;top=0;left=0;bottom=0;right=0;pointerEvents=1;fontSize=16;align=left;spacingLeft=14;spacingRight=6;" vertex="1" parent="7BiFJFlhl1OP4Zaxcnc6-10">
          <mxGeometry x="74" width="406" height="84" as="geometry">
            <mxRectangle width="406" height="84" as="alternateBounds" />
          </mxGeometry>
        </mxCell>
        <mxCell id="7BiFJFlhl1OP4Zaxcnc6-14" style="shape=tableRow;horizontal=0;startSize=0;swimlaneHead=0;swimlaneBody=0;strokeColor=inherit;top=0;left=0;bottom=0;right=0;collapsible=0;dropTarget=0;fillColor=none;points=[[0,0.5],[1,0.5]];portConstraint=eastwest;fontSize=16;" vertex="1" parent="7BiFJFlhl1OP4Zaxcnc6-1">
          <mxGeometry y="305" width="480" height="86" as="geometry" />
        </mxCell>
        <mxCell id="7BiFJFlhl1OP4Zaxcnc6-15" value="4" style="shape=partialRectangle;html=1;whiteSpace=wrap;connectable=0;strokeColor=inherit;overflow=hidden;fillColor=none;top=0;left=0;bottom=0;right=0;pointerEvents=1;fontSize=16;" vertex="1" parent="7BiFJFlhl1OP4Zaxcnc6-14">
          <mxGeometry width="74" height="86" as="geometry">
            <mxRectangle width="74" height="86" as="alternateBounds" />
          </mxGeometry>
        </mxCell>
        <mxCell id="7BiFJFlhl1OP4Zaxcnc6-16" value="Сайт отправляет https запрос на получение списка" style="shape=partialRectangle;html=1;whiteSpace=wrap;connectable=0;strokeColor=inherit;overflow=hidden;fillColor=none;top=0;left=0;bottom=0;right=0;pointerEvents=1;fontSize=16;align=left;spacingLeft=14;spacingRight=6;" vertex="1" parent="7BiFJFlhl1OP4Zaxcnc6-14">
          <mxGeometry x="74" width="406" height="86" as="geometry">
            <mxRectangle width="406" height="86" as="alternateBounds" />
          </mxGeometry>
        </mxCell>
        <mxCell id="7BiFJFlhl1OP4Zaxcnc6-18" style="shape=tableRow;horizontal=0;startSize=0;swimlaneHead=0;swimlaneBody=0;strokeColor=inherit;top=0;left=0;bottom=0;right=0;collapsible=0;dropTarget=0;fillColor=none;points=[[0,0.5],[1,0.5]];portConstraint=eastwest;fontSize=16;" vertex="1" parent="7BiFJFlhl1OP4Zaxcnc6-1">
          <mxGeometry y="391" width="480" height="86" as="geometry" />
        </mxCell>
        <mxCell id="7BiFJFlhl1OP4Zaxcnc6-19" value="5" style="shape=partialRectangle;html=1;whiteSpace=wrap;connectable=0;strokeColor=inherit;overflow=hidden;fillColor=none;top=0;left=0;bottom=0;right=0;pointerEvents=1;fontSize=16;" vertex="1" parent="7BiFJFlhl1OP4Zaxcnc6-18">
          <mxGeometry width="74" height="86" as="geometry">
            <mxRectangle width="74" height="86" as="alternateBounds" />
          </mxGeometry>
        </mxCell>
        <mxCell id="7BiFJFlhl1OP4Zaxcnc6-20" value="Бэкенд отправляет SQL запрос в БД&amp;nbsp;на формирование нового списка" style="shape=partialRectangle;html=1;whiteSpace=wrap;connectable=0;strokeColor=inherit;overflow=hidden;fillColor=none;top=0;left=0;bottom=0;right=0;pointerEvents=1;fontSize=16;align=left;spacingLeft=14;spacingRight=6;" vertex="1" parent="7BiFJFlhl1OP4Zaxcnc6-18">
          <mxGeometry x="74" width="406" height="86" as="geometry">
            <mxRectangle width="406" height="86" as="alternateBounds" />
          </mxGeometry>
        </mxCell>
        <mxCell id="7BiFJFlhl1OP4Zaxcnc6-22" style="shape=tableRow;horizontal=0;startSize=0;swimlaneHead=0;swimlaneBody=0;strokeColor=inherit;top=0;left=0;bottom=0;right=0;collapsible=0;dropTarget=0;fillColor=none;points=[[0,0.5],[1,0.5]];portConstraint=eastwest;fontSize=16;" vertex="1" parent="7BiFJFlhl1OP4Zaxcnc6-1">
          <mxGeometry y="477" width="480" height="86" as="geometry" />
        </mxCell>
        <mxCell id="7BiFJFlhl1OP4Zaxcnc6-23" value="6" style="shape=partialRectangle;html=1;whiteSpace=wrap;connectable=0;strokeColor=inherit;overflow=hidden;fillColor=none;top=0;left=0;bottom=0;right=0;pointerEvents=1;fontSize=16;" vertex="1" parent="7BiFJFlhl1OP4Zaxcnc6-22">
          <mxGeometry width="74" height="86" as="geometry">
            <mxRectangle width="74" height="86" as="alternateBounds" />
          </mxGeometry>
        </mxCell>
        <mxCell id="7BiFJFlhl1OP4Zaxcnc6-24" value="БД отбирает акции по заданным параметрам,&amp;nbsp;&lt;span style=&quot;background-color: initial;&quot;&gt;формирует список и сохраняет его в БД&lt;/span&gt;" style="shape=partialRectangle;html=1;whiteSpace=wrap;connectable=0;strokeColor=inherit;overflow=hidden;fillColor=none;top=0;left=0;bottom=0;right=0;pointerEvents=1;fontSize=16;align=left;spacingLeft=14;spacingRight=6;" vertex="1" parent="7BiFJFlhl1OP4Zaxcnc6-22">
          <mxGeometry x="74" width="406" height="86" as="geometry">
            <mxRectangle width="406" height="86" as="alternateBounds" />
          </mxGeometry>
        </mxCell>
        <mxCell id="7BiFJFlhl1OP4Zaxcnc6-26" style="shape=tableRow;horizontal=0;startSize=0;swimlaneHead=0;swimlaneBody=0;strokeColor=inherit;top=0;left=0;bottom=0;right=0;collapsible=0;dropTarget=0;fillColor=none;points=[[0,0.5],[1,0.5]];portConstraint=eastwest;fontSize=16;" vertex="1" parent="7BiFJFlhl1OP4Zaxcnc6-1">
          <mxGeometry y="563" width="480" height="85" as="geometry" />
        </mxCell>
        <mxCell id="7BiFJFlhl1OP4Zaxcnc6-27" value="7" style="shape=partialRectangle;html=1;whiteSpace=wrap;connectable=0;strokeColor=inherit;overflow=hidden;fillColor=none;top=0;left=0;bottom=0;right=0;pointerEvents=1;fontSize=16;" vertex="1" parent="7BiFJFlhl1OP4Zaxcnc6-26">
          <mxGeometry width="74" height="85" as="geometry">
            <mxRectangle width="74" height="85" as="alternateBounds" />
          </mxGeometry>
        </mxCell>
        <mxCell id="7BiFJFlhl1OP4Zaxcnc6-28" value="БД отправляет ответ со списком Бэкэнду" style="shape=partialRectangle;html=1;whiteSpace=wrap;connectable=0;strokeColor=inherit;overflow=hidden;fillColor=none;top=0;left=0;bottom=0;right=0;pointerEvents=1;fontSize=16;align=left;spacingLeft=14;spacingRight=6;" vertex="1" parent="7BiFJFlhl1OP4Zaxcnc6-26">
          <mxGeometry x="74" width="406" height="85" as="geometry">
            <mxRectangle width="406" height="85" as="alternateBounds" />
          </mxGeometry>
        </mxCell>
        <mxCell id="7BiFJFlhl1OP4Zaxcnc6-30" style="shape=tableRow;horizontal=0;startSize=0;swimlaneHead=0;swimlaneBody=0;strokeColor=inherit;top=0;left=0;bottom=0;right=0;collapsible=0;dropTarget=0;fillColor=none;points=[[0,0.5],[1,0.5]];portConstraint=eastwest;fontSize=16;" vertex="1" parent="7BiFJFlhl1OP4Zaxcnc6-1">
          <mxGeometry y="648" width="480" height="86" as="geometry" />
        </mxCell>
        <mxCell id="7BiFJFlhl1OP4Zaxcnc6-31" value="8" style="shape=partialRectangle;html=1;whiteSpace=wrap;connectable=0;strokeColor=inherit;overflow=hidden;fillColor=none;top=0;left=0;bottom=0;right=0;pointerEvents=1;fontSize=16;" vertex="1" parent="7BiFJFlhl1OP4Zaxcnc6-30">
          <mxGeometry width="74" height="86" as="geometry">
            <mxRectangle width="74" height="86" as="alternateBounds" />
          </mxGeometry>
        </mxCell>
        <mxCell id="7BiFJFlhl1OP4Zaxcnc6-32" value="Бэкенд формирует JSON со списком и отправляет его на фронтенд" style="shape=partialRectangle;html=1;whiteSpace=wrap;connectable=0;strokeColor=inherit;overflow=hidden;fillColor=none;top=0;left=0;bottom=0;right=0;pointerEvents=1;fontSize=16;align=left;spacingLeft=14;spacingRight=6;" vertex="1" parent="7BiFJFlhl1OP4Zaxcnc6-30">
          <mxGeometry x="74" width="406" height="86" as="geometry">
            <mxRectangle width="406" height="86" as="alternateBounds" />
          </mxGeometry>
        </mxCell>
        <mxCell id="7BiFJFlhl1OP4Zaxcnc6-34" style="shape=tableRow;horizontal=0;startSize=0;swimlaneHead=0;swimlaneBody=0;strokeColor=inherit;top=0;left=0;bottom=0;right=0;collapsible=0;dropTarget=0;fillColor=none;points=[[0,0.5],[1,0.5]];portConstraint=eastwest;fontSize=16;" vertex="1" parent="7BiFJFlhl1OP4Zaxcnc6-1">
          <mxGeometry y="734" width="480" height="86" as="geometry" />
        </mxCell>
        <mxCell id="7BiFJFlhl1OP4Zaxcnc6-35" value="9" style="shape=partialRectangle;html=1;whiteSpace=wrap;connectable=0;strokeColor=inherit;overflow=hidden;fillColor=none;top=0;left=0;bottom=0;right=0;pointerEvents=1;fontSize=16;" vertex="1" parent="7BiFJFlhl1OP4Zaxcnc6-34">
          <mxGeometry width="74" height="86" as="geometry">
            <mxRectangle width="74" height="86" as="alternateBounds" />
          </mxGeometry>
        </mxCell>
        <mxCell id="7BiFJFlhl1OP4Zaxcnc6-36" value="&lt;div&gt;&lt;span style=&quot;background-color: initial;&quot;&gt;Сформированный список отображоатся на сайте&lt;/span&gt;&lt;br&gt;&lt;/div&gt;" style="shape=partialRectangle;html=1;whiteSpace=wrap;connectable=0;strokeColor=inherit;overflow=hidden;fillColor=none;top=0;left=0;bottom=0;right=0;pointerEvents=1;fontSize=16;align=left;spacingLeft=14;spacingRight=6;" vertex="1" parent="7BiFJFlhl1OP4Zaxcnc6-34">
          <mxGeometry x="74" width="406" height="86" as="geometry">
            <mxRectangle width="406" height="86" as="alternateBounds" />
          </mxGeometry>
        </mxCell>
      </root>
    </mxGraphModel>
  </diagram>
</mxfile>
